<?xml version="1.0" standalone="no"?>
<!DOCTYPE svg PUBLIC "-//W3C//DTD SVG 20010904//EN"
 "http://www.w3.org/TR/2001/REC-SVG-20010904/DTD/svg10.dtd">
<svg version="1.0" xmlns="http://www.w3.org/2000/svg"
 width="750.000000pt" height="750.000000pt" viewBox="0 0 750.000000 750.000000"
 preserveAspectRatio="xMidYMid meet">
<metadata>
Created by potrace 1.11, written by Peter Selinger 2001-2013
</metadata>
<g transform="translate(0.000000,750.000000) scale(0.100000,-0.100000)"
fill="#000000" stroke="none">
<path d="M3620 7408 c-36 -11 -78 -30 -95 -41 -106 -75 -2878 -2302 -2898
-2329 -56 -73 -57 -81 -57 -435 0 -439 -29 -380 328 -663 122 -96 221 -178
222 -182 0 -4 -105 -91 -232 -194 -128 -102 -247 -204 -265 -227 -52 -68 -54
-91 -51 -453 l3 -331 30 -49 c25 -41 261 -234 1475 -1206 1195 -957 1456
-1162 1510 -1185 57 -24 78 -27 170 -27 92 0 113 3 170 27 54 23 315 228 1510
1185 1214 972 1450 1165 1475 1206 l30 49 3 331 c3 362 1 385 -51 453 -18 23
-137 125 -264 227 -128 103 -233 190 -233 194 1 4 100 86 222 182 260 206 274
219 304 285 23 49 24 55 24 378 0 354 -1 362 -57 435 -20 27 -2793 2255 -2898
2329 -86 60 -255 79 -375 41z m1558 -1384 c774 -619 1408 -1129 1410 -1134 4
-11 -690 -564 -708 -564 -8 0 -486 376 -1061 837 -576 460 -1052 837 -1059
837 -18 0 -1390 -1100 -1389 -1113 0 -7 472 -389 1050 -851 577 -461 1048
-842 1047 -846 -2 -5 -162 -135 -356 -290 l-352 -282 -1415 1132 c-779 623
-1414 1136 -1413 1140 5 14 2812 2258 2826 2259 6 1 645 -506 1420 -1125z m-1
-1695 c777 -623 1412 -1135 1411 -1139 -5 -13 -2817 -2260 -2828 -2260 -11 0
-2823 2247 -2828 2260 -5 13 711 580 723 571 5 -4 481 -385 1057 -846 l1048
-837 690 552 c379 304 690 557 689 563 0 7 -473 390 -1050 851 -578 461 -1046
842 -1042 847 15 15 708 568 712 569 2 0 640 -509 1418 -1131z"/>
</g>
</svg>
